<svg xmlns="http://www.w3.org/2000/svg" width="400" height="400" viewBox="-200 -200 400 400">  <g stroke="#000" stroke-width="1" stroke-linecap="round" stroke-linejoin="round">
    <polygon fill="rgba(0,128,255,0.8)" points="-166,52.3 -203.7,-28.5 -296.6,78.4 -229.2,153.3" />
    <polygon fill="rgba(0,128,255,0.8)" points="-64.6,69.4 -106.7,179.3 -229.2,153.3 -166,52.3" />
    <polygon fill="rgba(0,128,255,0.8)" points="-64.6,69.4 -80,-11.2 -203.7,-28.5 -166,52.3" />
    <polygon fill="rgba(0,128,255,0.8)" points="-106.7,179.3 -140.1,107.9 -296.6,78.4 -229.2,153.3" />
    <polygon fill="rgba(0,128,255,0.8)" points="-80,-11.2 -140.1,107.9 -296.6,78.4 -203.7,-28.5" />
    <polygon fill="rgba(0,128,255,0.8)" points="-64.6,69.4 -106.7,179.3 -140.1,107.9 -80,-11.2" />
    <polygon fill="rgba(255,0,0,0.8)" points="-25.1,-34 -29.5,-111.5 -59.6,-51.7 -49.1,28.9" />
    <polygon fill="rgba(255,0,0,0.8)" points="60.3,-22.9 50.9,44.2 -49.1,28.9 -25.1,-34" />
    <polygon fill="rgba(255,0,0,0.8)" points="60.3,-22.9 71.3,-101.3 -29.5,-111.5 -25.1,-34" />
    <polygon fill="rgba(255,0,0,0.8)" points="50.9,44.2 62.2,-36.6 -59.6,-51.7 -49.1,28.9" />
    <polygon fill="rgba(255,0,0,0.8)" points="71.3,-101.3 62.2,-36.6 -59.6,-51.7 -29.5,-111.5" />
    <polygon fill="rgba(255,0,0,0.8)" points="60.3,-22.9 50.9,44.2 62.2,-36.6 71.3,-101.3" />
  </g>
  <g stroke-width="2" stroke-linecap="round" stroke-linejoin="round">
    <line x1="-168" y1="168" x2="-172.5" y2="183.6" stroke="red" />
    <polygon fill="red" points="-174.6,191.3 -176.3,182.5 -168.6,184.7" />
    <text x="-177.4" y="200.9" fill="red" font-size="12" font-family="sans-serif" text-anchor="middle" dominant-baseline="central">X</text>
    <line x1="-168" y1="168" x2="-168" y2="151.8" stroke="green" />
    <polygon fill="green" points="-168,143.8 -164,151.8 -172,151.8" />
    <text x="-168" y="133.8" fill="green" font-size="12" font-family="sans-serif" text-anchor="middle" dominant-baseline="central">Y</text>
    <line x1="-168" y1="168" x2="-191.1" y2="164.8" stroke="blue" />
    <polygon fill="blue" points="-199,163.7 -190.6,160.8 -191.7,168.7" />
    <text x="-208.9" y="162.3" fill="blue" font-size="12" font-family="sans-serif" text-anchor="middle" dominant-baseline="central">Z</text>
  </g>
</svg>