<svg xmlns="http://www.w3.org/2000/svg" width="400" height="400" viewBox="-200 -200 400 400">  <g stroke="#000" stroke-width="1" stroke-linecap="round" stroke-linejoin="round">
    <polygon fill="rgba(255,0,0,0.8)" points="-37.3,141.2 -50.9,44.2 -62.2,-36.6 -48,65" />
    <polygon fill="rgba(0,128,255,0.8)" points="122.5,-17.2 145.2,-95.9 105,-142.2 90.8,-67.8" />
    <polygon fill="rgba(0,128,255,0.8)" points="36.1,-5.1 15.6,-58.8 90.8,-67.8 122.5,-17.2" />
    <polygon fill="rgba(0,128,255,0.8)" points="15.6,-58.8 18.1,-134.1 105,-142.2 90.8,-67.8" />
    <polygon fill="rgba(0,128,255,0.8)" points="36.1,-5.1 43.1,-84.5 145.2,-95.9 122.5,-17.2" />
    <polygon fill="rgba(0,128,255,0.8)" points="43.1,-84.5 18.1,-134.1 105,-142.2 145.2,-95.9" />
    <polygon fill="rgba(0,128,255,0.8)" points="36.1,-5.1 15.6,-58.8 18.1,-134.1 43.1,-84.5" />
    <polygon fill="rgba(255,0,0,0.8)" points="83.4,118.5 106,40.3 59.6,-51.7 49.1,28.9" />
    <polygon fill="rgba(255,0,0,0.8)" points="-37.3,141.2 -50.9,44.2 49.1,28.9 83.4,118.5" />
    <polygon fill="rgba(255,0,0,0.8)" points="-50.9,44.2 -62.2,-36.6 59.6,-51.7 49.1,28.9" />
    <polygon fill="rgba(255,0,0,0.8)" points="-37.3,141.2 -48,65 106,40.3 83.4,118.5" />
    <polygon fill="rgba(255,0,0,0.8)" points="-48,65 -62.2,-36.6 59.6,-51.7 106,40.3" />
  </g>
  <g stroke-width="2" stroke-linecap="round" stroke-linejoin="round">
    <line x1="-168" y1="168" x2="-172" y2="155" stroke="red" />
    <polygon fill="red" points="-174,147 -168,154 -176,156" />
    <text x="-177" y="138" fill="red" font-size="12" font-family="sans-serif" text-anchor="middle" dominant-baseline="central">X</text>
    <line x1="-168" y1="168" x2="-168" y2="152" stroke="green" />
    <polygon fill="green" points="-168,144 -164,152 -172,152" />
    <text x="-168" y="134" fill="green" font-size="12" font-family="sans-serif" text-anchor="middle" dominant-baseline="central">Y</text>
    <line x1="-168" y1="168" x2="-145" y2="165" stroke="blue" />
    <polygon fill="blue" points="-137,164 -144,169 -145,161" />
    <text x="-127" y="162" fill="blue" font-size="12" font-family="sans-serif" text-anchor="middle" dominant-baseline="central">Z</text>
  </g>
</svg>