<svg xmlns="http://www.w3.org/2000/svg" width="400" height="400" viewBox="-200 -200 400 400">  <g stroke="#000" stroke-width="1" stroke-linecap="round" stroke-linejoin="round">
    <polygon fill="rgba(255,0,0,0.7)" points="-19,8.6 51.1,36.7 56.8,-58.9 -20.9,-76" />
    <polygon fill="rgba(255,0,0,0.7)" points="-19,8.6 -20.9,-76 -99.2,-56.7 -89.1,40.3" />
    <polygon fill="rgba(255,0,0,0.7)" points="-19,8.6 51.1,36.7 -17.5,79.7 -89.1,40.3" />
    <polygon fill="rgba(0,0,255,0.7)" points="-1.8,8.2 -1.9,-38.1 -39.6,-24.8 -37.5,25" />
    <polygon fill="rgba(0,0,255,0.7)" points="-1.8,8.2 82.9,40.8 88,-12.1 -1.9,-38.1" />
    <polygon fill="rgba(0,0,255,0.7)" points="-1.8,8.2 82.9,40.8 49.4,64.4 -37.5,25" />
    <polygon fill="rgba(255,0,0,0.7)" points="-20.9,-76 56.8,-58.9 -19.9,-31.8 -99.2,-56.7" />
    <polygon fill="rgba(255,0,0,0.7)" points="51.1,36.7 56.8,-58.9 -19.9,-31.8 -17.5,79.7" />
    <polygon fill="rgba(255,0,0,0.7)" points="-89.1,40.3 -99.2,-56.7 -19.9,-31.8 -17.5,79.7" />
    <polygon fill="rgba(0,0,255,0.7)" points="-1.9,-38.1 88,-12.1 52.9,7 -39.6,-24.8" />
    <polygon fill="rgba(0,0,255,0.7)" points="-37.5,25 -39.6,-24.8 52.9,7 49.4,64.4" />
    <polygon fill="rgba(0,0,255,0.7)" points="82.9,40.8 88,-12.1 52.9,7 49.4,64.4" />
  </g>
</svg>