<svg xmlns="http://www.w3.org/2000/svg" width="400" height="400" viewBox="-200 -200 400 400">  <rect x="-200" y="-200" width="400" height="400" fill="gray" />
  <g stroke="#000" stroke-width="1" stroke-linecap="round" stroke-linejoin="round">
    <polygon fill="rgba(0,140,0,0.8)" points="71,-15 72,-21 28,-41 28,-35" />
    <polygon fill="rgba(0,140,0,0.8)" stroke="none" points="-38,55 -81,23 28,-35 71,-15" />
    <polygon fill="rgba(0,140,0,0.8)" stroke="none" points="-82,17 -82,17 28,-41 72,-21 -39,49" />
    <polygon fill="rgba(0,140,0,0.8)" stroke="none" points="-82,17 -82,17 28,-41 28,-35 -81,23" />
    <polygon fill="rgba(128,128,128,0.9)" points="47,-24 47,-33 37,-37 37,-29" />
    <polygon fill="rgba(128,128,128,0.9)" points="44,-23 34,-27 37,-29 47,-24" />
    <polygon fill="rgba(128,128,128,0.9)" points="34,-27 34,-36 37,-37 37,-29" />
    <polygon fill="rgba(128,128,128,0.9)" points="44,-23 44,-31 47,-33 47,-24" />
    <polygon fill="rgba(128,128,128,0.9)" points="44,-31 34,-36 37,-37 47,-33" />
    <polygon fill="rgba(128,128,128,0.9)" points="44,-23 34,-27 34,-36 44,-31" />
    <polygon fill="rgba(128,128,128,0.9)" points="31,-15 31,-24 21,-29 21,-20" />
    <polygon fill="rgba(128,128,128,0.9)" points="28,-13 18,-18 21,-20 31,-15" />
    <polygon fill="rgba(128,128,128,0.9)" points="18,-18 18,-27 21,-29 21,-20" />
    <polygon fill="rgba(128,128,128,0.9)" stroke="none" points="28,-13 28,-22 31,-24 31,-15" />
    <polygon fill="rgba(128,128,128,0.9)" points="28,-22 18,-27 21,-29 31,-24" />
    <polygon fill="rgba(128,128,128,0.9)" stroke="none" points="28,-22 31,-24 31,-24" />
    <polygon fill="rgba(128,128,128,0.9)" points="28,-13 18,-18 18,-27 28,-22" />
    <polygon fill="rgba(128,128,128,0.9)" points="28,-1 28,-9 -4,-26 -3,-18" />
    <polygon fill="rgba(128,128,128,0.9)" stroke="none" points="4,14 -27,-5 -3,-18 28,-1" />
    <polygon fill="rgba(128,128,128,0.9)" stroke="none" points="-4,-26 -3,-18 -27,-5 -28,-14" />
    <polygon fill="rgba(128,128,128,0.9)" stroke="none" points="4,14 4,5 28,-9 28,-1" />
    <polygon fill="rgba(128,128,128,0.9)" stroke="none" points="4,5 -28,-14 -4,-26 28,-9 4,5" />
    <polygon fill="rgba(128,128,128,0.9)" stroke="none" points="-28,-14 -4,-26 -4,-26 -28,-14" />
    <polygon fill="rgba(128,128,128,0.9)" stroke="none" points="4,5 28,-9 28,-9" />
    <polygon fill="rgba(128,128,128,0.9)" points="4,14 -27,-5 -28,-14 4,5" />
    <polygon fill="rgba(128,128,128,0.9)" stroke="none" points="4,14 -27,-5 -27,-5" />
    <polygon fill="rgba(128,128,128,0.9)" stroke="none" points="-27,-5 -28,-14 -28,-14 -27,-5" />
    <polygon fill="rgba(128,128,128,0.9)" stroke="none" points="4,5 -28,-14 -28,-14 4,5" />
    <polygon fill="rgba(128,128,128,0.9)" points="-8,24 -8,15 -44,-7 -44,1" />
    <polygon fill="rgba(128,128,128,0.9)" points="-37,42 -73,17 -44,1 -8,24" />
    <polygon fill="rgba(128,128,128,0.9)" points="-73,17 -74,8 -44,-7 -44,1" />
    <polygon fill="rgba(128,128,128,0.9)" points="-37,42 -38,33 -8,15 -8,24" />
    <polygon fill="rgba(128,128,128,0.9)" points="-38,33 -74,8 -44,-7 -8,15" />
    <polygon fill="rgba(128,128,128,0.9)" points="-37,42 -73,17 -74,8 -38,33" />
    <polygon fill="rgba(0,140,0,0.8)" stroke="none" points="-38,55 -39,49 72,-21 71,-15" />
    <polygon fill="rgba(0,140,0,0.8)" points="-38,55 -81,23 -82,17 -39,49" />
    <polygon fill="rgba(0,140,0,0.8)" stroke="none" points="-38,55 -81,23 -81,23" />
    <polygon fill="rgba(0,140,0,0.8)" stroke="none" points="-39,49 -82,17 -82,17 -39,49" />
    <polygon fill="rgba(0,140,0,0.8)" stroke="none" points="-81,23 -82,17 -82,17 -81,23" />
    <polygon fill="rgba(0,140,0,0.8)" stroke="none" points="-38,55 -39,49 -39,49" />
  </g>
  <g font-family="sans-serif" font-size="14" text-anchor="middle" dominant-baseline="central" transform="matrix(-0.8131930828094482 -0.5676813125610352 0.8526841402053833 -0.5101889967918396 -40.98354669209343 12.039064145641722)"><text x="0" y="0" fill="white">USBC</text></g>
  <g font-family="sans-serif" font-size="14" text-anchor="middle" dominant-baseline="central" transform="matrix(-0.895435631275177 -0.42243900895118713 0.8593531250953674 -0.4858119487762451 40.78101021895749 -34.08101589938795)"><text x="0" y="0" fill="white">LED</text></g>
  <g font-family="sans-serif" font-size="14" text-anchor="middle" dominant-baseline="central" transform="matrix(-0.8563992977142334 -0.498765230178833 0.8529369831085205 -0.5047737956047058 0.21025641726955246 -11.099531509839032)"><text x="0" y="0" fill="white">SW1</text></g>
  <g font-family="sans-serif" font-size="14" text-anchor="middle" dominant-baseline="central" transform="matrix(-0.884343683719635 -0.44591960310935974 0.8608115315437317 -0.48663562536239624 24.66032170385499 -25.15015013619066)"><text x="0" y="0" fill="white">R1</text></g>
</svg>