<svg xmlns="http://www.w3.org/2000/svg" width="400" height="400" viewBox="-200 -200 400 400">  <rect x="-200" y="-200" width="400" height="400" fill="gray" />
  <g stroke="#000" stroke-width="1" stroke-linecap="round" stroke-linejoin="round">
    <polygon fill="rgba(0,140,0,0.8)" points="71.1,-14.9 71.8,-20.5 28.4,-40.8 28.1,-35.4" />
    <polygon fill="rgba(0,140,0,0.8)" points="-38.4,55.2 -81.2,23.2 28.1,-35.4 71.1,-14.9" />
    <polygon fill="rgba(0,140,0,0.8)" points="-81.2,23.2 -82.1,17.2 28.4,-40.8 28.1,-35.4" />
    <polygon fill="rgba(0,140,0,0.8)" points="-38.4,55.2 -38.9,48.9 71.8,-20.5 71.1,-14.9" />
    <polygon fill="rgba(0,140,0,0.8)" points="-38.9,48.9 -82.1,17.2 28.4,-40.8 71.8,-20.5" />
    <polygon fill="rgba(128,128,128,0.9)" points="46.6,-24.4 47.3,-32.6 37.4,-37.3 36.9,-29.1" />
    <polygon fill="rgba(128,128,128,0.9)" points="43.6,-22.6 33.8,-27.4 36.9,-29.1 46.6,-24.4" />
    <polygon fill="rgba(128,128,128,0.9)" points="33.8,-27.4 34.3,-35.6 37.4,-37.3 36.9,-29.1" />
    <polygon fill="rgba(128,128,128,0.9)" points="43.6,-22.6 44.2,-30.9 47.3,-32.6 46.6,-24.4" />
    <polygon fill="rgba(128,128,128,0.9)" points="44.2,-30.9 34.3,-35.6 37.4,-37.3 47.3,-32.6" />
    <polygon fill="rgba(128,128,128,0.9)" points="43.6,-22.6 33.8,-27.4 34.3,-35.6 44.2,-30.9" />
    <polygon fill="rgba(128,128,128,0.9)" points="30.9,-15.2 31.3,-23.6 21.3,-28.6 21,-20.3" />
    <polygon fill="rgba(128,128,128,0.9)" points="27.6,-13.3 17.7,-18.4 21,-20.3 30.9,-15.2" />
    <polygon fill="rgba(128,128,128,0.9)" points="17.7,-18.4 18,-26.7 21.3,-28.6 21,-20.3" />
    <polygon fill="rgba(128,128,128,0.9)" points="27.6,-13.3 28,-21.7 31.3,-23.6 30.9,-15.2" />
    <polygon fill="rgba(128,128,128,0.9)" points="28,-21.7 18,-26.7 21.3,-28.6 31.3,-23.6" />
    <polygon fill="rgba(128,128,128,0.9)" points="27.6,-13.3 17.7,-18.4 18,-26.7 28,-21.7" />
    <polygon fill="rgba(128,128,128,0.9)" points="27.6,-0.8 28,-9.5 -3.5,-26.1 -3.5,-17.8" />
    <polygon fill="rgba(128,128,128,0.9)" points="3.9,13.6 -27.2,-5 -3.5,-17.8 27.6,-0.8" />
    <polygon fill="rgba(128,128,128,0.9)" points="-27.2,-5 -27.6,-13.6 -3.5,-26.1 -3.5,-17.8" />
    <polygon fill="rgba(128,128,128,0.9)" points="3.9,13.6 3.9,4.8 28,-9.5 27.6,-0.8" />
    <polygon fill="rgba(128,128,128,0.9)" points="3.9,4.8 -27.6,-13.6 -3.5,-26.1 28,-9.5" />
    <polygon fill="rgba(128,128,128,0.9)" points="3.9,13.6 -27.2,-5 -27.6,-13.6 3.9,4.8" />
    <polygon fill="rgba(128,128,128,0.9)" points="-7.9,24.1 -8,15.1 -44.5,-7.4 -43.8,1.2" />
    <polygon fill="rgba(128,128,128,0.9)" points="-37,42 -72.6,16.6 -43.8,1.2 -7.9,24.1" />
    <polygon fill="rgba(128,128,128,0.9)" points="-72.6,16.6 -73.7,7.7 -44.5,-7.4 -43.8,1.2" />
    <polygon fill="rgba(128,128,128,0.9)" points="-37,42 -37.7,32.8 -8,15.1 -7.9,24.1" />
    <polygon fill="rgba(128,128,128,0.9)" points="-37.7,32.8 -73.7,7.7 -44.5,-7.4 -8,15.1" />
    <polygon fill="rgba(128,128,128,0.9)" points="-37,42 -72.6,16.6 -73.7,7.7 -37.7,32.8" />
    <polygon fill="rgba(0,140,0,0.8)" points="-38.4,55.2 -81.2,23.2 -82.1,17.2 -38.9,48.9" />
  </g>
  <g font-family="sans-serif" font-size="14" text-anchor="middle" dominant-baseline="central" transform="matrix(-0.8131930757737726 -0.567681377232868 0.8526841031475978 -0.5101890785787725 -40.9835501392863 12.039070256784061)"><text x="0" y="0" fill="white">USBC</text></g>
  <g font-family="sans-serif" font-size="14" text-anchor="middle" dominant-baseline="central" transform="matrix(-0.8954357048652847 -0.4224389423162541 0.8593532650212258 -0.4858114255788001 40.78101007410208 -34.08101331487451)"><text x="0" y="0" fill="white">LED</text></g>
  <g font-family="sans-serif" font-size="14" text-anchor="middle" dominant-baseline="central" transform="matrix(-0.8563993081751773 -0.4987652390029143 0.8529370163758406 -0.5047738029384726 0.2102567721594779 -11.099528459958387)"><text x="0" y="0" fill="white">SW1</text></g>
  <g font-family="sans-serif" font-size="14" text-anchor="middle" dominant-baseline="central" transform="matrix(-0.8843436550492926 -0.4459194797124825 0.8608113210193091 -0.4866356969138108 24.660321657240075 -25.150147314610763)"><text x="0" y="0" fill="white">R1</text></g>
</svg>